<mxfile host="app.diagrams.net" modified="2023-12-18T14:27:58.504Z" agent="Mozilla/5.0 (Windows NT 10.0; Win64; x64) AppleWebKit/537.36 (KHTML, like Gecko) Chrome/112.0.0.0 Safari/537.36" etag="1MXXlb9YXUlNM-sbgYlv" version="21.6.6" type="device">
  <diagram id="C5RBs43oDa-KdzZeNtuy" name="Page-1">
    <mxGraphModel dx="2767" dy="1885" grid="1" gridSize="10" guides="1" tooltips="1" connect="1" arrows="1" fold="1" page="1" pageScale="1" pageWidth="827" pageHeight="1169" math="0" shadow="0">
      <root>
        <mxCell id="WIyWlLk6GJQsqaUBKTNV-0" />
        <mxCell id="WIyWlLk6GJQsqaUBKTNV-1" parent="WIyWlLk6GJQsqaUBKTNV-0" />
        <mxCell id="bzJafjZkd80wRq2OUzna-2" value="" style="edgeStyle=orthogonalEdgeStyle;rounded=0;orthogonalLoop=1;jettySize=auto;html=1;" edge="1" parent="WIyWlLk6GJQsqaUBKTNV-1" source="bzJafjZkd80wRq2OUzna-0" target="bzJafjZkd80wRq2OUzna-1">
          <mxGeometry relative="1" as="geometry" />
        </mxCell>
        <mxCell id="bzJafjZkd80wRq2OUzna-0" value="&lt;font style=&quot;vertical-align: inherit;&quot;&gt;&lt;font style=&quot;vertical-align: inherit;&quot;&gt;начало&lt;/font&gt;&lt;/font&gt;" style="rounded=1;whiteSpace=wrap;html=1;" vertex="1" parent="WIyWlLk6GJQsqaUBKTNV-1">
          <mxGeometry x="-480" y="10" width="160" height="80" as="geometry" />
        </mxCell>
        <mxCell id="bzJafjZkd80wRq2OUzna-4" value="" style="edgeStyle=orthogonalEdgeStyle;rounded=0;orthogonalLoop=1;jettySize=auto;html=1;" edge="1" parent="WIyWlLk6GJQsqaUBKTNV-1" source="bzJafjZkd80wRq2OUzna-1" target="bzJafjZkd80wRq2OUzna-3">
          <mxGeometry relative="1" as="geometry" />
        </mxCell>
        <mxCell id="bzJafjZkd80wRq2OUzna-1" value="&lt;font style=&quot;vertical-align: inherit;&quot;&gt;&lt;font style=&quot;vertical-align: inherit;&quot;&gt;&lt;font style=&quot;vertical-align: inherit;&quot;&gt;&lt;font style=&quot;vertical-align: inherit;&quot;&gt;&lt;font style=&quot;vertical-align: inherit;&quot;&gt;&lt;font style=&quot;vertical-align: inherit;&quot;&gt;&lt;font style=&quot;vertical-align: inherit;&quot;&gt;&lt;font style=&quot;vertical-align: inherit;&quot;&gt;A, B&lt;br&gt;manlen,dexp, &lt;br&gt;oexp,omant,&lt;br&gt;&amp;nbsp;osign,max_exp&lt;br&gt;min_exp,otv,&lt;br&gt;tailA,tailB,&lt;br&gt;otail&lt;br&gt;&lt;/font&gt;&lt;/font&gt;&lt;/font&gt;&lt;/font&gt;&lt;/font&gt;&lt;/font&gt;&lt;/font&gt;&lt;/font&gt;" style="shape=parallelogram;perimeter=parallelogramPerimeter;whiteSpace=wrap;html=1;fixedSize=1;" vertex="1" parent="WIyWlLk6GJQsqaUBKTNV-1">
          <mxGeometry x="-480" y="130" width="160" height="120" as="geometry" />
        </mxCell>
        <mxCell id="bzJafjZkd80wRq2OUzna-7" value="" style="edgeStyle=orthogonalEdgeStyle;rounded=0;orthogonalLoop=1;jettySize=auto;html=1;" edge="1" parent="WIyWlLk6GJQsqaUBKTNV-1" source="bzJafjZkd80wRq2OUzna-3" target="bzJafjZkd80wRq2OUzna-5">
          <mxGeometry relative="1" as="geometry" />
        </mxCell>
        <mxCell id="bzJafjZkd80wRq2OUzna-3" value="&lt;font style=&quot;vertical-align: inherit;&quot;&gt;&lt;font style=&quot;vertical-align: inherit;&quot;&gt;&lt;font style=&quot;vertical-align: inherit;&quot;&gt;&lt;font style=&quot;vertical-align: inherit;&quot;&gt;&lt;font style=&quot;vertical-align: inherit;&quot;&gt;&lt;font style=&quot;vertical-align: inherit;&quot;&gt;&lt;font style=&quot;vertical-align: inherit;&quot;&gt;&lt;font style=&quot;vertical-align: inherit;&quot;&gt;&lt;font style=&quot;vertical-align: inherit;&quot;&gt;&lt;font style=&quot;vertical-align: inherit;&quot;&gt;&lt;font style=&quot;vertical-align: inherit;&quot;&gt;&lt;font style=&quot;vertical-align: inherit;&quot;&gt;&lt;font style=&quot;vertical-align: inherit;&quot;&gt;&lt;font style=&quot;vertical-align: inherit;&quot;&gt;&lt;font style=&quot;vertical-align: inherit;&quot;&gt;&lt;font style=&quot;vertical-align: inherit;&quot;&gt;&lt;font style=&quot;vertical-align: inherit;&quot;&gt;&lt;font style=&quot;vertical-align: inherit;&quot;&gt;Разделяем числа на expA,mantA,signA&lt;/font&gt;&lt;/font&gt;&lt;/font&gt;&lt;/font&gt;&lt;/font&gt;&lt;/font&gt;&lt;/font&gt;&lt;/font&gt;&lt;/font&gt;&lt;/font&gt;&lt;/font&gt;&lt;/font&gt;&lt;br&gt;&lt;font style=&quot;vertical-align: inherit;&quot;&gt;&lt;font style=&quot;vertical-align: inherit;&quot;&gt;&lt;font style=&quot;vertical-align: inherit;&quot;&gt;&lt;font style=&quot;vertical-align: inherit;&quot;&gt;&lt;font style=&quot;vertical-align: inherit;&quot;&gt;&lt;font style=&quot;vertical-align: inherit;&quot;&gt;&lt;font style=&quot;vertical-align: inherit;&quot;&gt;&lt;font style=&quot;vertical-align: inherit;&quot;&gt;&lt;font style=&quot;vertical-align: inherit;&quot;&gt;&lt;font style=&quot;vertical-align: inherit;&quot;&gt;&lt;font style=&quot;vertical-align: inherit;&quot;&gt;&lt;font style=&quot;vertical-align: inherit;&quot;&gt;и&lt;/font&gt;&lt;/font&gt;&lt;/font&gt;&lt;/font&gt;&lt;/font&gt;&lt;/font&gt;&lt;/font&gt;&lt;/font&gt;&lt;/font&gt;&lt;/font&gt;&lt;/font&gt;&lt;/font&gt;&lt;br&gt;&lt;font style=&quot;vertical-align: inherit;&quot;&gt;&lt;font style=&quot;vertical-align: inherit;&quot;&gt;&lt;font style=&quot;vertical-align: inherit;&quot;&gt;&lt;font style=&quot;vertical-align: inherit;&quot;&gt;&lt;font style=&quot;vertical-align: inherit;&quot;&gt;&lt;font style=&quot;vertical-align: inherit;&quot;&gt;&lt;font style=&quot;vertical-align: inherit;&quot;&gt;&lt;font style=&quot;vertical-align: inherit;&quot;&gt;&lt;font style=&quot;vertical-align: inherit;&quot;&gt;&lt;font style=&quot;vertical-align: inherit;&quot;&gt;&lt;font style=&quot;vertical-align: inherit;&quot;&gt;&lt;font style=&quot;vertical-align: inherit;&quot;&gt;expB,mantB,signB&lt;/font&gt;&lt;/font&gt;&lt;/font&gt;&lt;/font&gt;&lt;/font&gt;&lt;/font&gt;&lt;/font&gt;&lt;/font&gt;&lt;/font&gt;&lt;/font&gt;&lt;/font&gt;&lt;/font&gt;&lt;br&gt;&lt;/font&gt;&lt;/font&gt;&lt;/font&gt;&lt;/font&gt;&lt;/font&gt;&lt;/font&gt;" style="rounded=0;whiteSpace=wrap;html=1;" vertex="1" parent="WIyWlLk6GJQsqaUBKTNV-1">
          <mxGeometry x="-480" y="290" width="160" height="80" as="geometry" />
        </mxCell>
        <mxCell id="bzJafjZkd80wRq2OUzna-9" value="" style="edgeStyle=orthogonalEdgeStyle;rounded=0;orthogonalLoop=1;jettySize=auto;html=1;" edge="1" parent="WIyWlLk6GJQsqaUBKTNV-1" source="bzJafjZkd80wRq2OUzna-5" target="bzJafjZkd80wRq2OUzna-8">
          <mxGeometry relative="1" as="geometry" />
        </mxCell>
        <mxCell id="bzJafjZkd80wRq2OUzna-5" value="Добавляем к каждой mant скрытую единицу" style="rounded=0;whiteSpace=wrap;html=1;" vertex="1" parent="WIyWlLk6GJQsqaUBKTNV-1">
          <mxGeometry x="-480" y="410" width="160" height="80" as="geometry" />
        </mxCell>
        <mxCell id="bzJafjZkd80wRq2OUzna-44" value="" style="edgeStyle=orthogonalEdgeStyle;rounded=0;orthogonalLoop=1;jettySize=auto;html=1;" edge="1" parent="WIyWlLk6GJQsqaUBKTNV-1" source="bzJafjZkd80wRq2OUzna-8" target="bzJafjZkd80wRq2OUzna-43">
          <mxGeometry relative="1" as="geometry" />
        </mxCell>
        <mxCell id="bzJafjZkd80wRq2OUzna-8" value="dexp=|expA-expB|" style="rounded=0;whiteSpace=wrap;html=1;" vertex="1" parent="WIyWlLk6GJQsqaUBKTNV-1">
          <mxGeometry x="-480" y="530" width="160" height="80" as="geometry" />
        </mxCell>
        <mxCell id="bzJafjZkd80wRq2OUzna-16" value="" style="edgeStyle=orthogonalEdgeStyle;rounded=0;orthogonalLoop=1;jettySize=auto;html=1;" edge="1" parent="WIyWlLk6GJQsqaUBKTNV-1" source="bzJafjZkd80wRq2OUzna-12">
          <mxGeometry relative="1" as="geometry">
            <mxPoint x="-600" y="1010" as="targetPoint" />
          </mxGeometry>
        </mxCell>
        <mxCell id="bzJafjZkd80wRq2OUzna-19" value="" style="edgeStyle=orthogonalEdgeStyle;rounded=0;orthogonalLoop=1;jettySize=auto;html=1;" edge="1" parent="WIyWlLk6GJQsqaUBKTNV-1" source="bzJafjZkd80wRq2OUzna-12">
          <mxGeometry relative="1" as="geometry">
            <mxPoint x="-200" y="1010" as="targetPoint" />
          </mxGeometry>
        </mxCell>
        <mxCell id="bzJafjZkd80wRq2OUzna-12" value="Если dexp &amp;gt;manlen" style="rhombus;whiteSpace=wrap;html=1;" vertex="1" parent="WIyWlLk6GJQsqaUBKTNV-1">
          <mxGeometry x="-480" y="890" width="160" height="80" as="geometry" />
        </mxCell>
        <mxCell id="bzJafjZkd80wRq2OUzna-17" value="NO" style="text;html=1;strokeColor=none;fillColor=none;align=center;verticalAlign=middle;whiteSpace=wrap;rounded=0;" vertex="1" parent="WIyWlLk6GJQsqaUBKTNV-1">
          <mxGeometry x="-560" y="900" width="60" height="30" as="geometry" />
        </mxCell>
        <mxCell id="bzJafjZkd80wRq2OUzna-20" value="YES" style="text;html=1;strokeColor=none;fillColor=none;align=center;verticalAlign=middle;whiteSpace=wrap;rounded=0;" vertex="1" parent="WIyWlLk6GJQsqaUBKTNV-1">
          <mxGeometry x="-300" y="900" width="60" height="30" as="geometry" />
        </mxCell>
        <mxCell id="bzJafjZkd80wRq2OUzna-27" value="" style="edgeStyle=orthogonalEdgeStyle;rounded=0;orthogonalLoop=1;jettySize=auto;html=1;" edge="1" parent="WIyWlLk6GJQsqaUBKTNV-1" source="bzJafjZkd80wRq2OUzna-21" target="bzJafjZkd80wRq2OUzna-26">
          <mxGeometry relative="1" as="geometry">
            <Array as="points">
              <mxPoint x="-480" y="1050" />
            </Array>
          </mxGeometry>
        </mxCell>
        <mxCell id="bzJafjZkd80wRq2OUzna-21" value="Если dexp!=0&amp;nbsp;&amp;nbsp;" style="rhombus;whiteSpace=wrap;html=1;" vertex="1" parent="WIyWlLk6GJQsqaUBKTNV-1">
          <mxGeometry x="-680" y="1010" width="160" height="80" as="geometry" />
        </mxCell>
        <mxCell id="bzJafjZkd80wRq2OUzna-57" value="" style="edgeStyle=orthogonalEdgeStyle;rounded=0;orthogonalLoop=1;jettySize=auto;html=1;" edge="1" parent="WIyWlLk6GJQsqaUBKTNV-1" source="bzJafjZkd80wRq2OUzna-26" target="bzJafjZkd80wRq2OUzna-56">
          <mxGeometry relative="1" as="geometry" />
        </mxCell>
        <mxCell id="bzJafjZkd80wRq2OUzna-26" value="min_mant&amp;gt;&amp;gt;=dexp&lt;br&gt;биты которые были сдвинуты попадают &lt;br&gt;в tail(A или B)&lt;br&gt;oexp=max_exp" style="whiteSpace=wrap;html=1;" vertex="1" parent="WIyWlLk6GJQsqaUBKTNV-1">
          <mxGeometry x="-560" y="1090" width="160" height="80" as="geometry" />
        </mxCell>
        <mxCell id="bzJafjZkd80wRq2OUzna-53" style="edgeStyle=orthogonalEdgeStyle;rounded=0;orthogonalLoop=1;jettySize=auto;html=1;exitX=0.5;exitY=1;exitDx=0;exitDy=0;" edge="1" parent="WIyWlLk6GJQsqaUBKTNV-1" source="bzJafjZkd80wRq2OUzna-34">
          <mxGeometry relative="1" as="geometry">
            <mxPoint x="140" y="200" as="targetPoint" />
            <Array as="points">
              <mxPoint x="-200" y="1120" />
              <mxPoint y="1120" />
              <mxPoint y="200" />
            </Array>
          </mxGeometry>
        </mxCell>
        <mxCell id="bzJafjZkd80wRq2OUzna-34" value="omant=max_mant&lt;br&gt;&amp;nbsp;oexp=max_exp&lt;br&gt;osign=max_sign" style="whiteSpace=wrap;html=1;" vertex="1" parent="WIyWlLk6GJQsqaUBKTNV-1">
          <mxGeometry x="-280" y="1010" width="160" height="80" as="geometry" />
        </mxCell>
        <mxCell id="bzJafjZkd80wRq2OUzna-41" value="YES" style="text;html=1;strokeColor=none;fillColor=none;align=center;verticalAlign=middle;whiteSpace=wrap;rounded=0;" vertex="1" parent="WIyWlLk6GJQsqaUBKTNV-1">
          <mxGeometry x="-525" y="1020" width="60" height="30" as="geometry" />
        </mxCell>
        <mxCell id="bzJafjZkd80wRq2OUzna-46" value="" style="edgeStyle=orthogonalEdgeStyle;rounded=0;orthogonalLoop=1;jettySize=auto;html=1;" edge="1" parent="WIyWlLk6GJQsqaUBKTNV-1" source="bzJafjZkd80wRq2OUzna-43" target="bzJafjZkd80wRq2OUzna-45">
          <mxGeometry relative="1" as="geometry">
            <Array as="points">
              <mxPoint x="-280" y="690" />
            </Array>
          </mxGeometry>
        </mxCell>
        <mxCell id="bzJafjZkd80wRq2OUzna-48" value="" style="edgeStyle=orthogonalEdgeStyle;rounded=0;orthogonalLoop=1;jettySize=auto;html=1;" edge="1" parent="WIyWlLk6GJQsqaUBKTNV-1" source="bzJafjZkd80wRq2OUzna-43" target="bzJafjZkd80wRq2OUzna-47">
          <mxGeometry relative="1" as="geometry">
            <Array as="points">
              <mxPoint x="-520" y="690" />
            </Array>
          </mxGeometry>
        </mxCell>
        <mxCell id="bzJafjZkd80wRq2OUzna-43" value="Если expA&amp;gt;expB" style="rhombus;whiteSpace=wrap;html=1;rounded=0;" vertex="1" parent="WIyWlLk6GJQsqaUBKTNV-1">
          <mxGeometry x="-480" y="650" width="160" height="80" as="geometry" />
        </mxCell>
        <mxCell id="bzJafjZkd80wRq2OUzna-52" style="edgeStyle=orthogonalEdgeStyle;rounded=0;orthogonalLoop=1;jettySize=auto;html=1;" edge="1" parent="WIyWlLk6GJQsqaUBKTNV-1" source="bzJafjZkd80wRq2OUzna-45">
          <mxGeometry relative="1" as="geometry">
            <mxPoint x="-400" y="890" as="targetPoint" />
          </mxGeometry>
        </mxCell>
        <mxCell id="bzJafjZkd80wRq2OUzna-45" value="max_exp=expA&lt;br&gt;max_mant=mantA&lt;br&gt;max_sign=signA&lt;br&gt;-----------------------------&lt;br&gt;min_exp=expB&lt;br style=&quot;border-color: var(--border-color);&quot;&gt;min_mant=expB&lt;br style=&quot;border-color: var(--border-color);&quot;&gt;min_sign=expB" style="whiteSpace=wrap;html=1;rounded=0;" vertex="1" parent="WIyWlLk6GJQsqaUBKTNV-1">
          <mxGeometry x="-360" y="730" width="160" height="120" as="geometry" />
        </mxCell>
        <mxCell id="bzJafjZkd80wRq2OUzna-51" style="edgeStyle=orthogonalEdgeStyle;rounded=0;orthogonalLoop=1;jettySize=auto;html=1;" edge="1" parent="WIyWlLk6GJQsqaUBKTNV-1" source="bzJafjZkd80wRq2OUzna-47">
          <mxGeometry relative="1" as="geometry">
            <mxPoint x="-400" y="890" as="targetPoint" />
          </mxGeometry>
        </mxCell>
        <mxCell id="bzJafjZkd80wRq2OUzna-47" value="max_exp=expB&lt;br style=&quot;border-color: var(--border-color);&quot;&gt;max_mant=mantB&lt;br style=&quot;border-color: var(--border-color);&quot;&gt;max_sign=signB&lt;br&gt;-----------------------------&lt;br&gt;min_exp=expA&lt;br&gt;min_mant=expA&lt;br&gt;min_sign=expA" style="whiteSpace=wrap;html=1;rounded=0;" vertex="1" parent="WIyWlLk6GJQsqaUBKTNV-1">
          <mxGeometry x="-600" y="730" width="160" height="120" as="geometry" />
        </mxCell>
        <mxCell id="bzJafjZkd80wRq2OUzna-49" value="NO" style="text;html=1;strokeColor=none;fillColor=none;align=center;verticalAlign=middle;whiteSpace=wrap;rounded=0;" vertex="1" parent="WIyWlLk6GJQsqaUBKTNV-1">
          <mxGeometry x="-540" y="660" width="60" height="30" as="geometry" />
        </mxCell>
        <mxCell id="bzJafjZkd80wRq2OUzna-50" value="YES" style="text;html=1;strokeColor=none;fillColor=none;align=center;verticalAlign=middle;whiteSpace=wrap;rounded=0;" vertex="1" parent="WIyWlLk6GJQsqaUBKTNV-1">
          <mxGeometry x="-320" y="660" width="60" height="30" as="geometry" />
        </mxCell>
        <mxCell id="bzJafjZkd80wRq2OUzna-63" value="" style="edgeStyle=orthogonalEdgeStyle;rounded=0;orthogonalLoop=1;jettySize=auto;html=1;entryX=1.006;entryY=0.613;entryDx=0;entryDy=0;entryPerimeter=0;" edge="1" parent="WIyWlLk6GJQsqaUBKTNV-1" source="bzJafjZkd80wRq2OUzna-56" target="bzJafjZkd80wRq2OUzna-68">
          <mxGeometry relative="1" as="geometry">
            <mxPoint x="-360" y="1290" as="targetPoint" />
            <Array as="points">
              <mxPoint x="-360" y="1250" />
              <mxPoint x="-360" y="1460" />
            </Array>
          </mxGeometry>
        </mxCell>
        <mxCell id="bzJafjZkd80wRq2OUzna-65" value="" style="edgeStyle=orthogonalEdgeStyle;rounded=0;orthogonalLoop=1;jettySize=auto;html=1;" edge="1" parent="WIyWlLk6GJQsqaUBKTNV-1" source="bzJafjZkd80wRq2OUzna-56" target="bzJafjZkd80wRq2OUzna-64">
          <mxGeometry relative="1" as="geometry">
            <Array as="points">
              <mxPoint x="-600" y="1250" />
            </Array>
          </mxGeometry>
        </mxCell>
        <mxCell id="bzJafjZkd80wRq2OUzna-56" value="signA==signB" style="rhombus;whiteSpace=wrap;html=1;" vertex="1" parent="WIyWlLk6GJQsqaUBKTNV-1">
          <mxGeometry x="-560" y="1210" width="160" height="80" as="geometry" />
        </mxCell>
        <mxCell id="bzJafjZkd80wRq2OUzna-58" value="" style="edgeStyle=orthogonalEdgeStyle;rounded=0;orthogonalLoop=1;jettySize=auto;html=1;entryX=0;entryY=0.5;entryDx=0;entryDy=0;" edge="1" parent="WIyWlLk6GJQsqaUBKTNV-1" source="bzJafjZkd80wRq2OUzna-21" target="bzJafjZkd80wRq2OUzna-68">
          <mxGeometry relative="1" as="geometry">
            <mxPoint x="-680" y="1050" as="sourcePoint" />
            <mxPoint x="-720" y="1540" as="targetPoint" />
            <Array as="points">
              <mxPoint x="-720" y="1050" />
              <mxPoint x="-720" y="1450" />
            </Array>
          </mxGeometry>
        </mxCell>
        <mxCell id="bzJafjZkd80wRq2OUzna-59" value="NO" style="text;html=1;strokeColor=none;fillColor=none;align=center;verticalAlign=middle;whiteSpace=wrap;rounded=0;" vertex="1" parent="WIyWlLk6GJQsqaUBKTNV-1">
          <mxGeometry x="-730" y="1020" width="60" height="30" as="geometry" />
        </mxCell>
        <mxCell id="bzJafjZkd80wRq2OUzna-69" value="" style="edgeStyle=orthogonalEdgeStyle;rounded=0;orthogonalLoop=1;jettySize=auto;html=1;" edge="1" parent="WIyWlLk6GJQsqaUBKTNV-1" source="bzJafjZkd80wRq2OUzna-64" target="bzJafjZkd80wRq2OUzna-68">
          <mxGeometry relative="1" as="geometry">
            <Array as="points">
              <mxPoint x="-600" y="1390" />
              <mxPoint x="-480" y="1390" />
            </Array>
          </mxGeometry>
        </mxCell>
        <mxCell id="bzJafjZkd80wRq2OUzna-64" value="min_mant~=min_mant&lt;br&gt;otail+=1" style="whiteSpace=wrap;html=1;" vertex="1" parent="WIyWlLk6GJQsqaUBKTNV-1">
          <mxGeometry x="-680" y="1290" width="160" height="80" as="geometry" />
        </mxCell>
        <mxCell id="bzJafjZkd80wRq2OUzna-66" value="YES" style="text;html=1;strokeColor=none;fillColor=none;align=center;verticalAlign=middle;whiteSpace=wrap;rounded=0;" vertex="1" parent="WIyWlLk6GJQsqaUBKTNV-1">
          <mxGeometry x="-410" y="1220" width="60" height="30" as="geometry" />
        </mxCell>
        <mxCell id="bzJafjZkd80wRq2OUzna-67" value="NO" style="text;html=1;strokeColor=none;fillColor=none;align=center;verticalAlign=middle;whiteSpace=wrap;rounded=0;" vertex="1" parent="WIyWlLk6GJQsqaUBKTNV-1">
          <mxGeometry x="-610" y="1220" width="60" height="30" as="geometry" />
        </mxCell>
        <mxCell id="bzJafjZkd80wRq2OUzna-73" value="" style="edgeStyle=orthogonalEdgeStyle;rounded=0;orthogonalLoop=1;jettySize=auto;html=1;" edge="1" parent="WIyWlLk6GJQsqaUBKTNV-1" source="bzJafjZkd80wRq2OUzna-68" target="bzJafjZkd80wRq2OUzna-72">
          <mxGeometry relative="1" as="geometry" />
        </mxCell>
        <mxCell id="bzJafjZkd80wRq2OUzna-68" value="omant=min_mant+max_mant&lt;br&gt;otail+=tailA+tailB" style="whiteSpace=wrap;html=1;" vertex="1" parent="WIyWlLk6GJQsqaUBKTNV-1">
          <mxGeometry x="-560" y="1410" width="160" height="80" as="geometry" />
        </mxCell>
        <mxCell id="bzJafjZkd80wRq2OUzna-75" value="" style="edgeStyle=orthogonalEdgeStyle;rounded=0;orthogonalLoop=1;jettySize=auto;html=1;" edge="1" parent="WIyWlLk6GJQsqaUBKTNV-1" source="bzJafjZkd80wRq2OUzna-72" target="bzJafjZkd80wRq2OUzna-74">
          <mxGeometry relative="1" as="geometry">
            <Array as="points">
              <mxPoint x="-360" y="1570" />
            </Array>
          </mxGeometry>
        </mxCell>
        <mxCell id="bzJafjZkd80wRq2OUzna-77" value="" style="edgeStyle=orthogonalEdgeStyle;rounded=0;orthogonalLoop=1;jettySize=auto;html=1;" edge="1" parent="WIyWlLk6GJQsqaUBKTNV-1" source="bzJafjZkd80wRq2OUzna-72" target="bzJafjZkd80wRq2OUzna-80">
          <mxGeometry relative="1" as="geometry">
            <mxPoint x="-600" y="1650" as="targetPoint" />
            <Array as="points">
              <mxPoint x="-640" y="1570" />
            </Array>
          </mxGeometry>
        </mxCell>
        <mxCell id="bzJafjZkd80wRq2OUzna-72" value="Если mant денормализованное" style="rhombus;whiteSpace=wrap;html=1;" vertex="1" parent="WIyWlLk6GJQsqaUBKTNV-1">
          <mxGeometry x="-560" y="1530" width="160" height="80" as="geometry" />
        </mxCell>
        <mxCell id="bzJafjZkd80wRq2OUzna-82" value="" style="edgeStyle=orthogonalEdgeStyle;rounded=0;orthogonalLoop=1;jettySize=auto;html=1;" edge="1" parent="WIyWlLk6GJQsqaUBKTNV-1" source="bzJafjZkd80wRq2OUzna-74" target="bzJafjZkd80wRq2OUzna-81">
          <mxGeometry relative="1" as="geometry" />
        </mxCell>
        <mxCell id="bzJafjZkd80wRq2OUzna-74" value="omant&amp;gt;&amp;gt;=1&lt;br&gt;oexp-=1" style="whiteSpace=wrap;html=1;" vertex="1" parent="WIyWlLk6GJQsqaUBKTNV-1">
          <mxGeometry x="-440" y="1610" width="160" height="80" as="geometry" />
        </mxCell>
        <mxCell id="bzJafjZkd80wRq2OUzna-78" value="YES" style="text;html=1;strokeColor=none;fillColor=none;align=center;verticalAlign=middle;whiteSpace=wrap;rounded=0;" vertex="1" parent="WIyWlLk6GJQsqaUBKTNV-1">
          <mxGeometry x="-410" y="1540" width="60" height="30" as="geometry" />
        </mxCell>
        <mxCell id="bzJafjZkd80wRq2OUzna-79" value="NO" style="text;html=1;strokeColor=none;fillColor=none;align=center;verticalAlign=middle;whiteSpace=wrap;rounded=0;" vertex="1" parent="WIyWlLk6GJQsqaUBKTNV-1">
          <mxGeometry x="-610" y="1540" width="60" height="30" as="geometry" />
        </mxCell>
        <mxCell id="bzJafjZkd80wRq2OUzna-87" value="" style="edgeStyle=orthogonalEdgeStyle;rounded=0;orthogonalLoop=1;jettySize=auto;html=1;" edge="1" parent="WIyWlLk6GJQsqaUBKTNV-1" source="bzJafjZkd80wRq2OUzna-80" target="bzJafjZkd80wRq2OUzna-86">
          <mxGeometry relative="1" as="geometry">
            <Array as="points">
              <mxPoint x="-520" y="1660" />
              <mxPoint x="-520" y="1730" />
              <mxPoint x="-640" y="1730" />
            </Array>
          </mxGeometry>
        </mxCell>
        <mxCell id="bzJafjZkd80wRq2OUzna-88" style="edgeStyle=orthogonalEdgeStyle;rounded=0;orthogonalLoop=1;jettySize=auto;html=1;exitX=0;exitY=0.5;exitDx=0;exitDy=0;" edge="1" parent="WIyWlLk6GJQsqaUBKTNV-1" source="bzJafjZkd80wRq2OUzna-80">
          <mxGeometry relative="1" as="geometry">
            <mxPoint x="-480" y="1850" as="targetPoint" />
            <Array as="points">
              <mxPoint x="-760" y="1660" />
              <mxPoint x="-760" y="1850" />
              <mxPoint x="-510" y="1850" />
            </Array>
          </mxGeometry>
        </mxCell>
        <mxCell id="bzJafjZkd80wRq2OUzna-80" value="Если есть лишняя&lt;br&gt;&amp;nbsp;единица слева" style="rhombus;whiteSpace=wrap;html=1;" vertex="1" parent="WIyWlLk6GJQsqaUBKTNV-1">
          <mxGeometry x="-720" y="1610" width="160" height="100" as="geometry" />
        </mxCell>
        <mxCell id="bzJafjZkd80wRq2OUzna-83" style="edgeStyle=orthogonalEdgeStyle;rounded=0;orthogonalLoop=1;jettySize=auto;html=1;" edge="1" parent="WIyWlLk6GJQsqaUBKTNV-1" source="bzJafjZkd80wRq2OUzna-81">
          <mxGeometry relative="1" as="geometry">
            <mxPoint x="-360" y="1590" as="targetPoint" />
            <Array as="points">
              <mxPoint x="-240" y="1790" />
              <mxPoint x="-240" y="1590" />
            </Array>
          </mxGeometry>
        </mxCell>
        <mxCell id="bzJafjZkd80wRq2OUzna-84" style="edgeStyle=orthogonalEdgeStyle;rounded=0;orthogonalLoop=1;jettySize=auto;html=1;exitX=0;exitY=0.5;exitDx=0;exitDy=0;entryX=0.5;entryY=0;entryDx=0;entryDy=0;" edge="1" parent="WIyWlLk6GJQsqaUBKTNV-1" source="bzJafjZkd80wRq2OUzna-81" target="bzJafjZkd80wRq2OUzna-94">
          <mxGeometry relative="1" as="geometry">
            <mxPoint x="-480" y="1850" as="targetPoint" />
            <Array as="points">
              <mxPoint x="-479" y="1790" />
              <mxPoint x="-479" y="1890" />
            </Array>
          </mxGeometry>
        </mxCell>
        <mxCell id="bzJafjZkd80wRq2OUzna-81" value="oexp&amp;gt;0 &lt;br&gt;or &lt;br&gt;omant != нормализ." style="rhombus;whiteSpace=wrap;html=1;" vertex="1" parent="WIyWlLk6GJQsqaUBKTNV-1">
          <mxGeometry x="-440" y="1730" width="160" height="120" as="geometry" />
        </mxCell>
        <mxCell id="bzJafjZkd80wRq2OUzna-95" style="edgeStyle=orthogonalEdgeStyle;rounded=0;orthogonalLoop=1;jettySize=auto;html=1;entryX=0.5;entryY=0;entryDx=0;entryDy=0;" edge="1" parent="WIyWlLk6GJQsqaUBKTNV-1" source="bzJafjZkd80wRq2OUzna-86" target="bzJafjZkd80wRq2OUzna-94">
          <mxGeometry relative="1" as="geometry">
            <Array as="points">
              <mxPoint x="-480" y="1790" />
            </Array>
          </mxGeometry>
        </mxCell>
        <mxCell id="bzJafjZkd80wRq2OUzna-86" value="omant&amp;gt;&amp;gt;=1&lt;br&gt;oexp+=1" style="whiteSpace=wrap;html=1;" vertex="1" parent="WIyWlLk6GJQsqaUBKTNV-1">
          <mxGeometry x="-700" y="1760" width="120" height="60" as="geometry" />
        </mxCell>
        <mxCell id="bzJafjZkd80wRq2OUzna-89" value="NO" style="text;html=1;strokeColor=none;fillColor=none;align=center;verticalAlign=middle;whiteSpace=wrap;rounded=0;" vertex="1" parent="WIyWlLk6GJQsqaUBKTNV-1">
          <mxGeometry x="-760" y="1630" width="60" height="30" as="geometry" />
        </mxCell>
        <mxCell id="bzJafjZkd80wRq2OUzna-90" value="YES" style="text;html=1;strokeColor=none;fillColor=none;align=center;verticalAlign=middle;whiteSpace=wrap;rounded=0;" vertex="1" parent="WIyWlLk6GJQsqaUBKTNV-1">
          <mxGeometry x="-580" y="1630" width="60" height="30" as="geometry" />
        </mxCell>
        <mxCell id="bzJafjZkd80wRq2OUzna-91" value="YES" style="text;html=1;strokeColor=none;fillColor=none;align=center;verticalAlign=middle;whiteSpace=wrap;rounded=0;" vertex="1" parent="WIyWlLk6GJQsqaUBKTNV-1">
          <mxGeometry x="-290" y="1760" width="60" height="30" as="geometry" />
        </mxCell>
        <mxCell id="bzJafjZkd80wRq2OUzna-93" value="NO" style="text;html=1;strokeColor=none;fillColor=none;align=center;verticalAlign=middle;whiteSpace=wrap;rounded=0;" vertex="1" parent="WIyWlLk6GJQsqaUBKTNV-1">
          <mxGeometry x="-490" y="1760" width="60" height="30" as="geometry" />
        </mxCell>
        <mxCell id="bzJafjZkd80wRq2OUzna-97" value="" style="edgeStyle=orthogonalEdgeStyle;rounded=0;orthogonalLoop=1;jettySize=auto;html=1;entryX=0.5;entryY=0;entryDx=0;entryDy=0;" edge="1" parent="WIyWlLk6GJQsqaUBKTNV-1" source="bzJafjZkd80wRq2OUzna-94" target="bzJafjZkd80wRq2OUzna-102">
          <mxGeometry relative="1" as="geometry">
            <mxPoint x="-360" y="2290" as="targetPoint" />
            <Array as="points">
              <mxPoint x="-300" y="2008" />
              <mxPoint x="-300" y="2160" />
              <mxPoint x="-390" y="2160" />
            </Array>
          </mxGeometry>
        </mxCell>
        <mxCell id="bzJafjZkd80wRq2OUzna-98" style="edgeStyle=orthogonalEdgeStyle;rounded=0;orthogonalLoop=1;jettySize=auto;html=1;exitX=0;exitY=0.5;exitDx=0;exitDy=0;entryX=0.5;entryY=0;entryDx=0;entryDy=0;" edge="1" parent="WIyWlLk6GJQsqaUBKTNV-1" source="bzJafjZkd80wRq2OUzna-94" target="bzJafjZkd80wRq2OUzna-101">
          <mxGeometry relative="1" as="geometry">
            <mxPoint x="-520" y="2290" as="targetPoint" />
            <Array as="points">
              <mxPoint x="-660" y="2008" />
              <mxPoint x="-660" y="2160" />
              <mxPoint x="-550" y="2160" />
            </Array>
          </mxGeometry>
        </mxCell>
        <mxCell id="bzJafjZkd80wRq2OUzna-94" value="&lt;p style=&quot;line-height: 120%;&quot;&gt;&lt;font style=&quot;font-size: 11px;&quot;&gt;Если &lt;br&gt;(последний бит в omant ==1&lt;br&gt;&amp;nbsp;and&lt;br&gt;&amp;nbsp;первый бит в otail ==1)&lt;br&gt;or&lt;br&gt;(последний бит в omant ==0&lt;br style=&quot;border-color: var(--border-color);&quot;&gt;&amp;nbsp;and&lt;br&gt;первый бит в otail ==1 &lt;br&gt;and &lt;br&gt;есть еще хоть 1 бит в otail)&lt;/font&gt;&lt;/p&gt;" style="rhombus;whiteSpace=wrap;html=1;" vertex="1" parent="WIyWlLk6GJQsqaUBKTNV-1">
          <mxGeometry x="-630" y="1883" width="300" height="250" as="geometry" />
        </mxCell>
        <mxCell id="bzJafjZkd80wRq2OUzna-99" value="NO" style="text;html=1;strokeColor=none;fillColor=none;align=center;verticalAlign=middle;whiteSpace=wrap;rounded=0;" vertex="1" parent="WIyWlLk6GJQsqaUBKTNV-1">
          <mxGeometry x="-680" y="1980" width="60" height="30" as="geometry" />
        </mxCell>
        <mxCell id="bzJafjZkd80wRq2OUzna-100" value="YES" style="text;html=1;strokeColor=none;fillColor=none;align=center;verticalAlign=middle;whiteSpace=wrap;rounded=0;" vertex="1" parent="WIyWlLk6GJQsqaUBKTNV-1">
          <mxGeometry x="-340" y="1980" width="60" height="30" as="geometry" />
        </mxCell>
        <mxCell id="bzJafjZkd80wRq2OUzna-101" value="NO" style="verticalLabelPosition=bottom;verticalAlign=top;html=1;shape=offPageConnector;rounded=0;size=0.5;" vertex="1" parent="WIyWlLk6GJQsqaUBKTNV-1">
          <mxGeometry x="-580" y="2170" width="60" height="70" as="geometry" />
        </mxCell>
        <mxCell id="bzJafjZkd80wRq2OUzna-102" value="YES" style="verticalLabelPosition=bottom;verticalAlign=top;html=1;shape=offPageConnector;rounded=0;size=0.5;" vertex="1" parent="WIyWlLk6GJQsqaUBKTNV-1">
          <mxGeometry x="-420" y="2170" width="60" height="70" as="geometry" />
        </mxCell>
        <mxCell id="bzJafjZkd80wRq2OUzna-109" style="edgeStyle=orthogonalEdgeStyle;rounded=0;orthogonalLoop=1;jettySize=auto;html=1;exitX=0.5;exitY=1;exitDx=0;exitDy=0;entryX=0.5;entryY=0;entryDx=0;entryDy=0;" edge="1" parent="WIyWlLk6GJQsqaUBKTNV-1" source="bzJafjZkd80wRq2OUzna-103" target="bzJafjZkd80wRq2OUzna-107">
          <mxGeometry relative="1" as="geometry">
            <Array as="points">
              <mxPoint x="140" y="90" />
            </Array>
          </mxGeometry>
        </mxCell>
        <mxCell id="bzJafjZkd80wRq2OUzna-103" value="NO" style="verticalLabelPosition=bottom;verticalAlign=top;html=1;shape=offPageConnector;rounded=0;size=0.5;" vertex="1" parent="WIyWlLk6GJQsqaUBKTNV-1">
          <mxGeometry x="-10" y="20" width="60" height="70" as="geometry" />
        </mxCell>
        <mxCell id="bzJafjZkd80wRq2OUzna-106" value="" style="edgeStyle=orthogonalEdgeStyle;rounded=0;orthogonalLoop=1;jettySize=auto;html=1;" edge="1" parent="WIyWlLk6GJQsqaUBKTNV-1" target="bzJafjZkd80wRq2OUzna-105">
          <mxGeometry relative="1" as="geometry">
            <mxPoint x="370" y="90" as="sourcePoint" />
            <Array as="points">
              <mxPoint x="300" y="90" />
            </Array>
          </mxGeometry>
        </mxCell>
        <mxCell id="bzJafjZkd80wRq2OUzna-104" value="YES" style="verticalLabelPosition=bottom;verticalAlign=top;html=1;shape=offPageConnector;rounded=0;size=0.5;" vertex="1" parent="WIyWlLk6GJQsqaUBKTNV-1">
          <mxGeometry x="340" y="20" width="60" height="70" as="geometry" />
        </mxCell>
        <mxCell id="bzJafjZkd80wRq2OUzna-108" value="" style="edgeStyle=orthogonalEdgeStyle;rounded=0;orthogonalLoop=1;jettySize=auto;html=1;" edge="1" parent="WIyWlLk6GJQsqaUBKTNV-1" source="bzJafjZkd80wRq2OUzna-105" target="bzJafjZkd80wRq2OUzna-107">
          <mxGeometry relative="1" as="geometry">
            <Array as="points">
              <mxPoint x="140" y="170" />
            </Array>
          </mxGeometry>
        </mxCell>
        <mxCell id="bzJafjZkd80wRq2OUzna-105" value="Округляем:&lt;br&gt;otail=0&lt;br&gt;omant+=1" style="whiteSpace=wrap;html=1;verticalAlign=top;rounded=0;" vertex="1" parent="WIyWlLk6GJQsqaUBKTNV-1">
          <mxGeometry x="220" y="130" width="160" height="80" as="geometry" />
        </mxCell>
        <mxCell id="bzJafjZkd80wRq2OUzna-114" value="" style="edgeStyle=orthogonalEdgeStyle;rounded=0;orthogonalLoop=1;jettySize=auto;html=1;" edge="1" parent="WIyWlLk6GJQsqaUBKTNV-1" source="bzJafjZkd80wRq2OUzna-107" target="bzJafjZkd80wRq2OUzna-113">
          <mxGeometry relative="1" as="geometry" />
        </mxCell>
        <mxCell id="bzJafjZkd80wRq2OUzna-107" value="Убираем скрытую единицу&lt;br&gt;" style="whiteSpace=wrap;html=1;verticalAlign=top;rounded=0;" vertex="1" parent="WIyWlLk6GJQsqaUBKTNV-1">
          <mxGeometry x="60" y="250" width="160" height="80" as="geometry" />
        </mxCell>
        <mxCell id="bzJafjZkd80wRq2OUzna-117" value="" style="edgeStyle=orthogonalEdgeStyle;rounded=0;orthogonalLoop=1;jettySize=auto;html=1;" edge="1" parent="WIyWlLk6GJQsqaUBKTNV-1" source="bzJafjZkd80wRq2OUzna-113" target="bzJafjZkd80wRq2OUzna-116">
          <mxGeometry relative="1" as="geometry" />
        </mxCell>
        <mxCell id="bzJafjZkd80wRq2OUzna-113" value="Соединяем osign, oexp и omant" style="whiteSpace=wrap;html=1;verticalAlign=top;rounded=0;" vertex="1" parent="WIyWlLk6GJQsqaUBKTNV-1">
          <mxGeometry x="60" y="370" width="160" height="80" as="geometry" />
        </mxCell>
        <mxCell id="bzJafjZkd80wRq2OUzna-116" value="Конец" style="rounded=1;whiteSpace=wrap;html=1;" vertex="1" parent="WIyWlLk6GJQsqaUBKTNV-1">
          <mxGeometry x="60" y="490" width="160" height="80" as="geometry" />
        </mxCell>
      </root>
    </mxGraphModel>
  </diagram>
</mxfile>
